<svg xmlns="http://www.w3.org/2000/svg" viewBox="0 0 26.76 24.958">
    <defs>
        <style>
            .cls-1{fill:#0093a7}.cls-2{fill:none;stroke:#0093a7;stroke-miterlimit:10;stroke-width:.647px}
        </style>
    </defs>
    <g id="Ilustraci贸n_27" data-name="Ilustraci贸n 27" transform="translate(13.38 12.641)">
        <g id="Ilustraci贸n_27-2" data-name="Ilustraci贸n 27" transform="translate(-13.38 -12.318)">
            <path id="Path_1510" d="M26.678 95.551c-.25-.81-.551-1.6-.792-2.416a2.522 2.522 0 0 0-2.321-1.687c-1.5.032-3.007.009-4.51.009h-.316c-.178-.531-.35-1.053-.528-1.573a2.43 2.43 0 0 0-2.231-1.62H8.988c-.122 0-.217 0-.264-.153-.126-.415-.273-.825-.41-1.237l-1.609-4.849c-.32-.962-.659-1.918-.96-2.886A2.47 2.47 0 0 0 3.6 77.43a51.065 51.065 0 0 0-2.506 0 1.07 1.07 0 0 0-.892.465A1.228 1.228 0 0 0 .1 79.04c.2.642.431 1.277.643 1.916q.982 2.947 1.961 5.9c.35 1.052.714 2.1 1.049 3.156s.746 2.079 1.06 3.14c.246.834.544 1.652.823 2.475a2.4 2.4 0 0 0 2.144 1.548h.555v3.419h15.781v-3.41h.02c.544 0 1.089.01 1.632-.012a.994.994 0 0 0 .984-.878 1.8 1.8 0 0 0-.074-.743z" class="cls-1" data-name="Path 1510" transform="translate(-.005 -75.958)"/>
            <ellipse id="Ellipse_34" cx="3.678" cy="4.762" class="cls-2" data-name="Ellipse 34" rx="3.678" ry="4.762" transform="translate(13.38)"/>
        </g>
    </g>
</svg>
