<?xml version="1.0" encoding="UTF-8"?>
<svg width="25px" height="25px" viewBox="0 0 25 25" version="1.1" xmlns="http://www.w3.org/2000/svg" xmlns:xlink="http://www.w3.org/1999/xlink">
    <!-- Generator: Sketch 39.1 (31720) - http://www.bohemiancoding.com/sketch -->
    <title>icono-cp</title>
    <desc>Created with Sketch.</desc>
    <defs></defs>
    <g id="diseños" stroke="none" stroke-width="1" fill="none" fill-rule="evenodd">
        <g id="02-Formulario2-C" transform="translate(-320.000000, -444.000000)" fill="#42ABF3">
            <g id="step3" transform="translate(273.000000, 215.000000)">
                <g id="codigo-postal" transform="translate(38.000000, 229.000000)">
                    <g id="icono-cp" transform="translate(9.000000, 0.000000)">
                        <g id="Capa_1">
                            <path d="M12.4571429,0 C5.58821429,0 0,5.58821429 0,12.4572619 C0,19.3261905 5.58821429,24.9144048 12.4571429,24.9144048 C19.3260714,24.9144048 24.9142857,19.3261905 24.9142857,12.4572619 C24.9142857,5.58821429 19.3260714,0 12.4571429,0 L12.4571429,0 Z M12.4571429,23.1285714 C11.9827381,23.1285714 11.2178571,22.27 10.5784524,20.3520238 C10.279881,19.4563095 10.0391667,18.4303571 9.86083333,17.3161905 C10.7003571,17.2495238 11.5710714,17.2142857 12.4571429,17.2142857 C13.3432143,17.2142857 14.2139286,17.2495238 15.0534524,17.3163095 C14.875119,18.4304762 14.6344048,19.4563095 14.3358333,20.3520238 C13.6964286,22.27 12.9315476,23.1285714 12.4571429,23.1285714 L12.4571429,23.1285714 Z M12.4571429,15.4285714 C11.4914286,15.4285714 10.5470238,15.467381 9.63761905,15.5415476 C9.54440476,14.552381 9.4952381,13.5172619 9.4952381,12.4571429 C9.4952381,11.3970238 9.54440476,10.3619048 9.63761905,9.37261905 C10.5469048,9.44678571 11.4913095,9.48559524 12.4567857,9.48559524 C13.422619,9.48559524 14.3671429,9.44678571 15.2766667,9.37261905 C15.369881,10.3619048 15.4190476,11.3970238 15.4190476,12.4571429 C15.4190476,13.5172619 15.369881,14.552381 15.2766667,15.5415476 C14.3672619,15.4675 13.4227381,15.4285714 12.4571429,15.4285714 L12.4571429,15.4285714 Z M1.78571429,12.4572619 C1.78571429,10.8036905 2.16380952,9.23690476 2.83785714,7.83857143 C4.15678571,8.44130952 5.89059524,8.89928571 7.86416667,9.17738095 C7.76142857,10.2492857 7.70940476,11.3544048 7.70940476,12.4572619 C7.70940476,13.560119 7.76142857,14.6652381 7.86416667,15.7371429 C5.89047619,16.015119 4.15678571,16.4732143 2.83785714,17.0760714 C2.16380952,15.6775 1.78571429,14.1107143 1.78571429,12.4572619 L1.78571429,12.4572619 Z M12.4571429,1.78571429 C12.9315476,1.78571429 13.6964286,2.64428571 14.3358333,4.5622619 C14.6344048,5.45797619 14.875119,6.48380952 15.0534524,7.59797619 C14.2138095,7.6647619 13.3430952,7.7 12.4567857,7.7 C11.5708333,7.7 10.7002381,7.6647619 9.86083333,7.59809524 C10.0391667,6.48392857 10.279881,5.45797619 10.5784524,4.56238095 C11.2178571,2.64428571 11.9827381,1.78571429 12.4571429,1.78571429 L12.4571429,1.78571429 Z M17.05,9.17714286 C19.0236905,8.89904762 20.757381,8.44095238 22.0761905,7.83809524 C22.7504762,9.23654762 23.1285714,10.8035714 23.1285714,12.4571429 C23.1285714,14.1105952 22.7504762,15.6775 22.0764286,17.0758333 C20.7575,16.4730952 19.0236905,16.015119 17.050119,15.7370238 C17.1528571,14.6652381 17.204881,13.56 17.204881,12.4571429 C17.2047619,11.3542857 17.1527381,10.2490476 17.05,9.17714286 L17.05,9.17714286 Z M21.1625,6.29142857 C20.032381,6.78047619 18.5321429,7.16130952 16.8280952,7.40297619 C16.505,5.33630952 15.9758333,3.48892857 15.2472619,2.15642857 C17.6664286,2.8125 19.7475,4.29940476 21.1625,6.29142857 L21.1625,6.29142857 Z M9.66714286,2.15654762 C8.93857143,3.48904762 8.40940476,5.33642857 8.08630952,7.40321429 C6.3822619,7.16154762 4.88190476,6.78071429 3.75166667,6.29178571 C5.16666667,4.29952381 7.2477381,2.8125 9.66714286,2.15654762 L9.66714286,2.15654762 Z M3.75178571,18.6227381 C4.88190476,18.1336905 6.3822619,17.7528571 8.08630952,17.5111905 C8.40940476,19.5778571 8.93857143,21.4252381 9.66714286,22.7577381 C7.2477381,22.1017857 5.16666667,20.614881 3.75178571,18.6227381 L3.75178571,18.6227381 Z M15.2472619,22.7577381 C15.9758333,21.4252381 16.505,19.5778571 16.8279762,17.5111905 C18.5320238,17.7528571 20.032381,18.1336905 21.162619,18.6227381 C19.747619,20.614881 17.6665476,22.1017857 15.2472619,22.7577381 L15.2472619,22.7577381 Z" id="Shape"></path>
                        </g>
                    </g>
                </g>
            </g>
        </g>
    </g>
</svg>