<?xml version="1.0" encoding="UTF-8"?>
<svg width="25px" height="25px" viewBox="0 0 25 25" version="1.1" xmlns="http://www.w3.org/2000/svg" xmlns:xlink="http://www.w3.org/1999/xlink">
    <!-- Generator: Sketch 39.1 (31720) - http://www.bohemiancoding.com/sketch -->
    <title>icono-email</title>
    <desc>Created with Sketch.</desc>
    <defs></defs>
    <g id="diseños" stroke="none" stroke-width="1" fill="none" fill-rule="evenodd">
        <g id="02-Formulario2-C" transform="translate(-320.000000, -568.000000)" fill="#60abc0">
            <g id="step3" transform="translate(273.000000, 215.000000)">
                <g id="email" transform="translate(38.000000, 353.000000)">
                    <g id="icono-email" transform="translate(9.000000, 0.000000)">
                        <g id="Capa_1">
                            <path d="M12.4884328,0 C5.60236318,0 0.00012437811,5.60223881 0.00012437811,12.4883085 C0.00012437811,19.3746269 5.60236318,24.97699 12.4884328,24.97699 C13.0037313,24.97699 13.4212687,24.5593284 13.4212687,24.0441542 C13.4212687,23.5289801 13.0037313,23.1113184 12.4884328,23.1113184 C6.63109453,23.1113184 1.86579602,18.3458955 1.86579602,12.4883085 C1.86579602,6.63097015 6.63109453,1.86567164 12.4884328,1.86567164 C18.3457711,1.86567164 23.1110697,6.63097015 23.1110697,12.4883085 L23.1110697,15.3776119 C23.1110697,16.4562189 22.2334577,17.3337065 21.1547264,17.3337065 C20.0761194,17.3337065 19.1986318,16.4562189 19.1986318,15.3776119 L19.1986318,12.4883085 C19.1986318,8.7880597 16.1884328,5.77773632 12.4883085,5.77773632 C8.7880597,5.77773632 5.77773632,8.7880597 5.77773632,12.4883085 C5.77773632,16.188806 8.7880597,19.1993781 12.4883085,19.1993781 C14.5419154,19.1993781 16.3819652,18.2711443 17.613806,16.8131841 C18.1824627,18.2109453 19.5549751,19.1993781 21.1547264,19.1993781 C23.2620647,19.1993781 24.9767413,17.4849502 24.9767413,15.3776119 L24.9767413,12.4883085 C24.9767413,5.60223881 19.3745025,0 12.4884328,0 L12.4884328,0 Z M12.4884328,17.3337065 C9.81691542,17.3337065 7.64353234,15.1600746 7.64353234,12.4883085 C7.64353234,9.81679104 9.8170398,7.64340796 12.4884328,7.64340796 C15.1598259,7.64340796 17.3330846,9.81679104 17.3330846,12.4883085 C17.3330846,15.1600746 15.1598259,17.3337065 12.4884328,17.3337065 L12.4884328,17.3337065 Z" id="Shape"></path>
                        </g>
                    </g>
                </g>
            </g>
        </g>
    </g>
</svg>