<?xml version="1.0" encoding="UTF-8"?>
<svg width="27px" height="23px" viewBox="0 0 27 23" version="1.1" xmlns="http://www.w3.org/2000/svg" xmlns:xlink="http://www.w3.org/1999/xlink">
    <!-- Generator: Sketch 39.1 (31720) - http://www.bohemiancoding.com/sketch -->
    <title>icono-casa</title>
    <desc>Created with Sketch.</desc>
    <defs></defs>
    <g id="diseños" stroke="none" stroke-width="1" fill="none" fill-rule="evenodd">
        <g id="02-Formulario2-C" transform="translate(-319.000000, -310.000000)" stroke-width="0.4" stroke="#42ABF3" fill="#42ABF3">
            <g id="step3" transform="translate(273.000000, 215.000000)">
                <g id="calle" transform="translate(38.000000, 96.000000)">
                    <g id="home" transform="translate(9.000000, 0.000000)">
                        <g id="Capa_1">
                            <g id="icono-casa">
                                <path d="M20.6970698,11.7200846 C20.2874881,11.7200846 19.9556114,12.0520603 19.9556114,12.461543 L19.9556114,19.985764 L4.90687283,19.985764 L4.90687283,12.461543 C4.90687283,12.0520603 4.57499605,11.7200846 4.16541443,11.7200846 C3.75583281,11.7200846 3.42395603,12.0520603 3.42395603,12.461543 L3.42395603,20.7272224 C3.42395603,21.1367052 3.75583281,21.4686808 4.16541443,21.4686808 L20.6970698,21.4686808 C21.1066514,21.4686808 21.4385282,21.1367052 21.4385282,20.7272224 L21.4385282,12.461543 C21.4385282,12.0520603 21.1065525,11.7200846 20.6970698,11.7200846 L20.6970698,11.7200846 Z" id="Shape"></path>
                                <path d="M24.6442977,11.9372825 L12.9542668,0.248635717 C12.6648015,-0.0409285036 12.19531,-0.0408296425 11.9057458,0.248635717 L0.21719788,11.9372825 C-0.0723663398,12.2268467 -0.0723663398,12.6963382 0.21719788,12.9858035 C0.362029421,13.1305362 0.551842771,13.2030014 0.74155726,13.2030014 C0.931370611,13.2030014 1.1210851,13.1306351 1.26591664,12.9858035 L12.430204,1.82141727 L23.5958755,12.9858035 C23.8853409,13.2753678 24.3548323,13.2752689 24.6444954,12.9857047 C24.9338619,12.6962393 24.9338619,12.2267479 24.6442977,11.9372825 L24.6442977,11.9372825 Z" id="Shape"></path>
                            </g>
                        </g>
                    </g>
                </g>
            </g>
        </g>
    </g>
</svg>