<?xml version="1.0" encoding="UTF-8"?>
<svg width="33px" height="21px" viewBox="0 0 33 21" version="1.1" xmlns="http://www.w3.org/2000/svg" xmlns:xlink="http://www.w3.org/1999/xlink">
    <!-- Generator: Sketch 39.1 (31720) - http://www.bohemiancoding.com/sketch -->
    <title>icono-barrio</title>
    <desc>Created with Sketch.</desc>
    <defs></defs>
    <g id="diseños" stroke="none" stroke-width="1" fill="none" fill-rule="evenodd">
        <g id="02-Formulario2-C" transform="translate(-531.000000, -447.000000)" stroke-width="0.4" stroke="#42ABF3" fill="#42ABF3">
            <g id="step3" transform="translate(273.000000, 215.000000)">
                <g id="barrio" transform="translate(252.000000, 232.000000)">
                    <g id="icono-barrio" transform="translate(7.000000, 1.000000)">
                        <g id="Capa_1">
                            <g id="Group">
                                <path d="M19.0413042,10.6546224 C18.6644891,10.6546224 18.3591624,10.9564184 18.3591624,11.3286755 L18.3591624,18.1688764 L4.514323,18.1688764 L4.514323,11.3286755 C4.514323,10.9564184 4.20899636,10.6546224 3.83218127,10.6546224 C3.45536618,10.6546224 3.15003954,10.9564184 3.15003954,11.3286755 L3.15003954,18.8429295 C3.15003954,19.2151865 3.45536618,19.5169825 3.83218127,19.5169825 L19.0413042,19.5169825 C19.4181193,19.5169825 19.7234459,19.2151865 19.7234459,18.8429295 L19.7234459,11.3286755 C19.7234459,10.9564184 19.4180283,10.6546224 19.0413042,10.6546224 L19.0413042,10.6546224 Z" id="Shape"></path>
                                <path d="M22.6727539,10.852075 L11.9179255,0.22603247 C11.6516174,-0.0372077306 11.2196852,-0.0371178568 10.9532861,0.22603247 L0.19982205,10.852075 C-0.0665770326,11.1153152 -0.0665770326,11.5421256 0.19982205,11.8052759 C0.333067067,11.9368511 0.50769535,12.0027286 0.68223268,12.0027286 C0.856860962,12.0027286 1.03139829,11.936941 1.16464331,11.8052759 L11.4357877,1.65583388 L21.7082055,11.8052759 C21.9745136,12.0685161 22.4064457,12.0684263 22.6729358,11.8051861 C22.939153,11.5420357 22.939153,11.1152253 22.6727539,10.852075 L22.6727539,10.852075 Z" id="Shape"></path>
                            </g>
                        </g>
                        <g id="Capa_1" transform="translate(16.000000, 1.000000)">
                            <g id="Group">
                                <path d="M11.1662646,9.62937416 L11.1662646,15.4435449 L3.56912363,15.1994468 L2.44210686,15.7723919 C2.44210686,16.0888104 2.69433321,16.345337 3.00561524,16.345337 L11.729773,16.5894352 C12.041055,16.5894352 12.2932814,16.3329085 12.2932814,16.01649 L12.2932814,9.62937416 C12.2932814,9.31295566 12.0409799,9.05642903 11.729773,9.05642903 C11.418491,9.05642903 11.1662646,9.31295566 11.1662646,9.62937416 Z" id="Shape"></path>
                                <path d="M5.8452428,0.192127599 C5.62524913,-0.031626571 5.26843562,-0.0315501783 5.04836681,0.192127599 L0.421723735,4.76277723 C0.201654927,4.9865314 0.201654927,5.34932026 0.421723735,5.57299803 C0.531795706,5.68483692 0.676053852,5.74083276 0.820236863,5.74083276 C0.96449501,5.74083276 1.10867802,5.68491332 1.21874999,5.57299803 L5.44695508,1.4074588 L13.9328654,10.0344846 C14.1528591,10.2582387 14.5096726,10.2581623 14.7298165,10.0344082 C14.9497351,9.81073039 14.9497351,9.44794153 14.7296662,9.22426375 L5.8452428,0.192127599 Z" id="Shape"></path>
                            </g>
                        </g>
                    </g>
                </g>
            </g>
        </g>
    </g>
</svg>