<?xml version="1.0" encoding="UTF-8"?>
<svg width="24px" height="25px" viewBox="0 0 24 25" version="1.1" xmlns="http://www.w3.org/2000/svg" xmlns:xlink="http://www.w3.org/1999/xlink">
    <!-- Generator: Sketch 39.1 (31720) - http://www.bohemiancoding.com/sketch -->
    <title>icono-telefono</title>
    <desc>Created with Sketch.</desc>
    <defs></defs>
    <g id="diseños" stroke="none" stroke-width="1" fill="none" fill-rule="evenodd">
        <g id="02-Formulario-1--B" transform="translate(-320.000000, -444.000000)" fill="#60abc0">
            <g id="step1-complete" transform="translate(273.000000, 215.000000)">
                <g id="telefono" transform="translate(38.000000, 229.000000)">
                    <g id="icono-telefono" transform="translate(9.000000, 0.000000)">
                        <g id="Capa_1">
                            <g id="Group">
                                <path d="M20.7475942,3.26910377 C18.6747826,1.16084906 15.9187246,-0.000117924528 12.9874783,0 C12.5071304,0 12.117913,0.395990566 12.117913,0.884433962 C12.117913,1.37287736 12.5072464,1.76886792 12.9874783,1.76886792 C15.4542609,1.76875 17.7734493,2.74575472 19.5177971,4.51992925 C21.2622609,6.29410377 22.2228406,8.65306604 22.2227246,11.1621462 C22.2227246,11.6505896 22.611942,12.0465802 23.0922899,12.0465802 C23.5725217,12.0465802 23.9618551,11.6505896 23.9618551,11.1622642 C23.961971,8.18054245 22.8205217,5.37735849 20.7475942,3.26910377 L20.7475942,3.26910377 Z" id="Shape"></path>
                                <path d="M17.1705507,11.1622642 C17.1705507,11.6507075 17.5598841,12.0466981 18.0402319,12.0465802 C18.5204638,12.0465802 18.9096812,11.6505896 18.9096812,11.1621462 C18.9094493,7.84139151 16.2527536,5.13938679 12.9875942,5.13891509 C12.9874783,5.13891509 12.9875942,5.13891509 12.9874783,5.13891509 C12.5072464,5.13891509 12.118029,5.53478774 12.117913,6.02323113 C12.117913,6.51167453 12.5071304,6.90766509 12.9873623,6.90778302 C15.2937971,6.90813679 17.1703188,8.81662736 17.1705507,11.1622642 L17.1705507,11.1622642 Z" id="Shape"></path>
                                <path d="M15.2463768,15.6716981 C13.9209275,15.6018868 13.2456812,16.6044811 12.9218551,17.0860849 C12.6506667,17.4892689 12.7522319,18.0396226 13.1486377,18.3154481 C13.5450435,18.5912736 14.0861449,18.4879717 14.3573333,18.0847877 C14.739942,17.5158019 14.9132754,17.4262972 15.1484058,17.4376179 C15.9009855,17.5275943 18.8650435,19.7367925 19.1618551,20.4275943 C19.2362899,20.6310142 19.2335072,20.8304245 19.1536232,21.0729953 C18.8424348,22.0123821 18.3273043,22.6725236 17.6636522,22.9819575 C17.0331594,23.2759434 16.2601739,23.2492925 15.4287536,22.9051887 C12.3241739,21.6181604 9.61182609,19.8220519 7.36718841,17.5666274 C7.36626087,17.565684 7.36533333,17.5648585 7.36452174,17.5639151 C5.15165217,15.2831368 3.38898551,12.5279481 2.12568116,9.37511792 C1.78724638,8.52877358 1.76104348,7.74245283 2.05008696,7.10129717 C2.35431884,6.42629717 3.00336232,5.90235849 3.92614493,5.58620283 C4.16544928,5.50459906 4.36115942,5.50200472 4.55930435,5.57700472 C5.24092754,5.87995283 7.41286957,8.89457547 7.50052174,9.65141509 C7.51304348,9.8995283 7.42434783,10.0757075 6.8653913,10.4641509 C6.46886957,10.7396226 6.36695652,11.2899764 6.63791304,11.6932783 C6.90875362,12.0965802 7.44973913,12.2001179 7.84637681,11.9246462 C8.32011594,11.5956368 9.30562319,10.9107311 9.23721739,9.55801887 C9.16185507,8.14504717 6.45947826,4.40318396 5.16823188,3.92028302 C4.59397101,3.70259434 3.98991304,3.69882075 3.37217391,3.90966981 C1.98226087,4.38573113 0.978434783,5.23455189 0.469217391,6.36426887 C-0.0246956522,7.46025943 -0.00904347826,8.73183962 0.515014493,10.042217 C1.86701449,13.4162736 3.7586087,16.3685142 6.13715942,18.817217 C6.14295652,18.8232311 6.14886957,18.8291274 6.15489855,18.8349057 C8.56069565,21.2496462 11.459942,23.1700472 14.7728696,24.5435142 C15.4362899,24.8179245 16.0896232,24.9553066 16.7144348,24.9553066 C17.3027246,24.9553066 17.865971,24.8336085 18.3884058,24.5899764 C19.4992464,24.0721698 20.3336812,23.0512972 20.802087,21.6366745 C21.0089275,21.0095519 21.0055652,20.3954009 20.7931594,19.814033 C20.3167536,18.4971698 16.6377971,15.7485849 15.2463768,15.6716981 L15.2463768,15.6716981 Z" id="Shape"></path>
                            </g>
                        </g>
                    </g>
                </g>
            </g>
        </g>
    </g>
</svg>