<svg xmlns="http://www.w3.org/2000/svg" viewBox="0 0 225.714 114.937">
    <defs>
        <style>
            .cls-1{fill:#5c95a4}.cls-2{fill:#6cacc1}.cls-3{opacity:.52;fill:url(#radial-gradient)}.cls-4{fill:url(#linear-gradient)}.cls-5{fill:#fff}
        </style>
        <radialGradient id="radial-gradient" cx="155.336" cy="35.262" r="23.765" gradientTransform="translate(-28.469 -11.212) scale(1.318)" gradientUnits="userSpaceOnUse">
            <stop offset="0" stop-color="#fff" stop-opacity="0"/>
            <stop offset=".215" stop-color="#e5e4e4" stop-opacity=".216"/>
            <stop offset=".674" stop-color="#a1a19f" stop-opacity=".675"/>
            <stop offset="1" stop-color="#6e6d6b"/>
        </radialGradient>
        <linearGradient id="linear-gradient" x2=".995" y1=".482" y2=".513" gradientUnits="objectBoundingBox">
            <stop offset="0" stop-color="#6cacc1" stop-opacity="0"/>
            <stop offset=".323" stop-color="#6eadc0" stop-opacity=".494"/>
            <stop offset=".652" stop-color="#72aabd"/>
            <stop offset=".67" stop-color="#78adbf"/>
            <stop offset=".695" stop-color="#87b6c7"/>
            <stop offset=".725" stop-color="#9fc4d3"/>
            <stop offset=".758" stop-color="#c4dbe4"/>
            <stop offset=".794" stop-color="#f0f6f8"/>
            <stop offset=".809" stop-color="#fff"/>
        </linearGradient>
    </defs>
    <g id="logo_turnosklasse" transform="translate(0 .001)">
        <g id="Group_353" data-name="Group 353" transform="translate(0 82.727)">
            <path id="Path_254" d="M12.338 64.3L7.922 83.391c-.649 2.987-1.429 4.935-2.338 5.714S2.857 90.274 0 90.274L.649 86.9a3.344 3.344 0 0 0 2.338-.649 6.777 6.777 0 0 0 1.169-2.857L8.571 64.3h3.766z" data-name="Path 254" transform="translate(0 -63.521)"/>
            <path id="Path_255" d="M12.966 81.238a2.179 2.179 0 0 0 .779 1.818 3.19 3.19 0 0 0 1.948.649 31.6 31.6 0 0 0 4.935-.39l.909-.13-.39 2.727a20.956 20.956 0 0 1-6.364.909C11.018 86.822 9.2 85 9.2 81.238a16.014 16.014 0 0 1 2.208-8.438 9.007 9.007 0 0 1 2.987-2.857 9.09 9.09 0 0 1 4.286-1.043c3.766 0 5.584 1.558 5.584 4.675a4.7 4.7 0 0 1-2.208 4.416 16.486 16.486 0 0 1-7.273 1.3h-1.428a4.337 4.337 0 0 0-.39 1.947zm2.334-4.806a9.437 9.437 0 0 0 4.026-.649 2.275 2.275 0 0 0 1.174-2.208c0-1.169-.649-1.688-2.078-1.688-2.338 0-4.026 1.558-4.805 4.545z" data-name="Path 255" transform="translate(2.748 -62.147)"/>
            <path id="Path_256" d="M26.1 83.392c0 .909.39 1.3 1.3 1.3l2.468-.26-.26 2.727a11.267 11.267 0 0 1-3.636.649 3.658 3.658 0 0 1-2.727-.909 3.325 3.325 0 0 1-1.045-2.468 13.558 13.558 0 0 1 .519-3.636l1.688-7.273H22.46l.779-3.247h1.948l1.039-4.675h3.766l-1.039 4.675h4.156l-.779 3.247H28.3l-1.818 7.662a5.243 5.243 0 0 0-.382 2.208z" data-name="Path 256" transform="translate(6.631 -63.132)"/>
            <path id="Path_257" d="M38.071 72.087a3.3 3.3 0 0 0-2.078.649 2.245 2.245 0 0 0-.779 1.558 1.266 1.266 0 0 0 .519 1.169 6.943 6.943 0 0 0 2.078.779c1.039.26 1.688.519 2.208.649a3.9 3.9 0 0 1 1.429.779 3.1 3.1 0 0 1 1.3 2.727 5.77 5.77 0 0 1-2.079 4.803 9.088 9.088 0 0 1-5.455 1.688 15.7 15.7 0 0 1-4.935-.779l-.779-.26.649-2.727a32.8 32.8 0 0 0 5.195.649c2.468 0 3.636-.779 3.636-2.468a.87.87 0 0 0-.519-.909 7.7 7.7 0 0 0-2.468-.779 8.689 8.689 0 0 1-3.117-1.429 2.938 2.938 0 0 1-1.169-2.6 5.939 5.939 0 0 1 2.078-4.805 7.13 7.13 0 0 1 4.936-1.681 21.038 21.038 0 0 1 5.195.649l.779.26-.649 2.727a30.216 30.216 0 0 0-5.975-.649z" data-name="Path 257" transform="translate(8.812 -62.087)"/>
            <path id="Path_258" d="M54.577 64.3c4.026 0 5.974 1.688 5.974 4.935a7.031 7.031 0 0 1-4.156 6.493 5.1 5.1 0 0 1 1.948 1.688 4.644 4.644 0 0 1 .519 2.468 7.929 7.929 0 0 1-2.338 5.844c-1.558 1.558-3.766 2.208-6.753 2.208H41.2l5.455-23.506h7.922zm-2.468 13.247h-4.675l-1.559 7.013h4.675a3.948 3.948 0 0 0 3.247-1.3 4.855 4.855 0 0 0 1.169-3.377c0-1.557-.909-2.336-2.857-2.336zm1.948-10h-4.286L48.213 74.3H52.5a3.761 3.761 0 0 0 2.986-1.3 4.213 4.213 0 0 0 1.169-3.117 2.049 2.049 0 0 0-.649-1.688 2.688 2.688 0 0 0-1.949-.648z" data-name="Path 258" transform="translate(12.306 -63.521)"/>
            <path id="Path_259" d="M65.5 68.9c4.286 0 6.364 2.078 6.364 6.234a15.753 15.753 0 0 1-.909 5.584 11.583 11.583 0 0 1-2.987 4.416 7.02 7.02 0 0 1-4.805 1.688c-4.286 0-6.364-2.078-6.364-6.1a15.8 15.8 0 0 1 1.039-5.584 9.819 9.819 0 0 1 3.117-4.416A6.977 6.977 0 0 1 65.5 68.9zm-2.206 14.805a4.257 4.257 0 0 0 3.636-2.6 12.687 12.687 0 0 0 1.429-5.974 3.715 3.715 0 0 0-.649-2.208 2.742 2.742 0 0 0-2.078-.779c-1.429 0-2.6.909-3.636 2.6a13.08 13.08 0 0 0-1.429 5.974c-.001 1.948.908 2.987 2.727 2.987z" data-name="Path 259" transform="translate(16.966 -62.147)"/>
            <path id="Path_260" d="M78.6 68.9c4.286 0 6.364 2.078 6.364 6.234a15.753 15.753 0 0 1-.909 5.584 11.583 11.583 0 0 1-2.987 4.416 7.02 7.02 0 0 1-4.805 1.688c-4.286 0-6.364-2.078-6.364-6.1a15.8 15.8 0 0 1 1.039-5.584 9.819 9.819 0 0 1 3.117-4.416A6.725 6.725 0 0 1 78.6 68.9zm-2.336 14.805a4.257 4.257 0 0 0 3.636-2.6 12.687 12.687 0 0 0 1.429-5.974 3.715 3.715 0 0 0-.649-2.208 2.742 2.742 0 0 0-2.078-.779c-1.429 0-2.6.909-3.636 2.6a13.08 13.08 0 0 0-1.429 5.974c.129 1.948 1.038 2.987 2.727 2.987z" data-name="Path 260" transform="translate(20.879 -62.147)"/>
            <path id="Path_261" d="M86.066 87.986H82.3L87.884 63.7h3.766L88.4 77.466l1.558-.13 5.195-6.494h4.156l-6.619 8.053 2.727 9.091h-3.9l-2.208-7.532-1.688.13z" data-name="Path 261" transform="translate(24.583 -63.7)"/>
            <path id="Path_262" d="M94.5 87.866l3.9-17.143h3.766l-3.9 17.143zm4.545-19.74l.909-4.026h3.766l-.909 4.026z" data-name="Path 262" transform="translate(28.227 -63.581)"/>
            <path id="Path_263" d="M112.578 68.9a3.531 3.531 0 0 1 3.117 1.3 4.739 4.739 0 0 1 1.039 3.117 19.2 19.2 0 0 1-.779 4.675l-1.948 8.571h-3.767l1.948-8.312a28.5 28.5 0 0 0 .649-3.9 2.769 2.769 0 0 0-.39-1.558 1.368 1.368 0 0 0-1.3-.519 4.306 4.306 0 0 0-1.948.649 9.706 9.706 0 0 0-1.688 1.429l-.649.779-2.6 11.429H100.5l3.9-17.143h3.636l-.39 2.208c.13-.26.39-.39.779-.779a16.371 16.371 0 0 1 1.688-1.169 4.946 4.946 0 0 1 2.465-.777z" data-name="Path 263" transform="translate(30.019 -62.147)"/>
            <path id="Path_264" d="M125.687 92.566a8.746 8.746 0 0 1-5.844 1.818c-4.805 0-7.143-1.558-7.143-4.545a3.819 3.819 0 0 1 1.169-2.857 11.82 11.82 0 0 1 3.117-2.078 2.151 2.151 0 0 1-.649-1.558 2.61 2.61 0 0 1 .519-1.688 5.666 5.666 0 0 1 1.039-1.3l.519-.519a4.406 4.406 0 0 1-2.338-4.156 6.971 6.971 0 0 1 1.948-4.935 6.852 6.852 0 0 1 5.066-1.948 16.741 16.741 0 0 1 3.247.39l.519.13 5.065-.26-.779 3.117h-2.468a4.758 4.758 0 0 1 .26 2.078 6.3 6.3 0 0 1-1.948 4.545 7.159 7.159 0 0 1-5.195 1.948l-1.3-.13a2.858 2.858 0 0 0-.779 1.558.823.823 0 0 0 .649.779c.39.13 1.3.26 2.857.519a7.081 7.081 0 0 1 3.506 1.3 3.287 3.287 0 0 1 1.3 2.987 6.367 6.367 0 0 1-2.337 4.805zm-8.831-5.195a2.514 2.514 0 0 0-.779 1.688 1.851 1.851 0 0 0 .779 1.558 4.645 4.645 0 0 0 2.727.649 7.19 7.19 0 0 0 3.377-.779 2.587 2.587 0 0 0 1.429-2.338 1.364 1.364 0 0 0-.649-1.169 10.221 10.221 0 0 0-2.6-.649 12.32 12.32 0 0 1-2.6-.519c-.515.52-1.165 1.04-1.684 1.559zm5.195-9.48a3.338 3.338 0 0 0 3.506-3.507q0-2.338-2.727-2.338a3.325 3.325 0 0 0-2.468 1.039 3.643 3.643 0 0 0-.909 2.468c0 1.559.909 2.338 2.598 2.338z" data-name="Path 264" transform="translate(33.664 -62.177)"/>
            <path id="Path_265" d="M125.6 83.475l1.039-4.675h3.766l-1.039 4.675z" data-name="Path 265" transform="translate(37.517 -59.19)"/>
            <path id="Path_266" d="M140.031 68.9a15.281 15.281 0 0 1 4.026.649l.779.26-.909 2.727a27.62 27.62 0 0 0-3.9-.39 4.013 4.013 0 0 0-3.766 2.468 11.943 11.943 0 0 0-1.3 5.714c0 2.208 1.039 3.247 2.987 3.247a25.22 25.22 0 0 0 3.117-.26l.649-.13-.26 2.857a16.309 16.309 0 0 1-4.935.779 5.3 5.3 0 0 1-3.9-1.429 5.962 5.962 0 0 1-1.429-4.156 15.692 15.692 0 0 1 2.338-8.831 7.147 7.147 0 0 1 6.503-3.505z" data-name="Path 266" transform="translate(39.19 -62.147)"/>
            <path id="Path_267" d="M150.3 68.9c4.286 0 6.364 2.078 6.364 6.234a15.753 15.753 0 0 1-.909 5.584 11.583 11.583 0 0 1-2.987 4.416 7.02 7.02 0 0 1-4.805 1.688c-4.286 0-6.364-2.078-6.364-6.1a15.8 15.8 0 0 1 1.039-5.584 9.819 9.819 0 0 1 3.117-4.416A6.977 6.977 0 0 1 150.3 68.9zm-2.208 14.805a4.257 4.257 0 0 0 3.636-2.6 12.687 12.687 0 0 0 1.429-5.974 3.715 3.715 0 0 0-.649-2.208 2.742 2.742 0 0 0-2.078-.779c-1.429 0-2.6.909-3.636 2.6a13.08 13.08 0 0 0-1.429 5.974c.001 1.948.91 2.987 2.729 2.987z" data-name="Path 267" transform="translate(42.296 -62.147)"/>
            <path id="Path_268" d="M166.408 74.384c0-1.429-.649-2.208-1.818-2.208a3.461 3.461 0 0 0-1.688.649 9.7 9.7 0 0 0-1.688 1.429l-.649.779-2.6 11.429H154.2l3.9-17.143h3.636l-.39 2.208.26-.26.649-.649 1.169-.779a4.947 4.947 0 0 1 2.857-.909 4.485 4.485 0 0 1 2.338.649 2.652 2.652 0 0 1 1.169 1.3l.26.649.779-.779q.584-.39 1.948-1.169a5.455 5.455 0 0 1 2.725-.78 3.531 3.531 0 0 1 3.117 1.3 4.631 4.631 0 0 1 1.039 2.987 29.054 29.054 0 0 1-.649 4.805l-1.948 8.571h-3.766l1.948-8.312a27.772 27.772 0 0 0 .649-3.766c0-1.558-.519-2.338-1.688-2.338a3.461 3.461 0 0 0-1.688.649 5.2 5.2 0 0 0-1.558 1.3l-.649.649a23.147 23.147 0 0 1-.519 3.377l-1.948 8.571h-3.77l1.948-8.312c.13-1.949.39-3.247.39-3.897z" data-name="Path 268" transform="translate(46.06 -62.177)"/>
        </g>
        <g id="Group_354" data-name="Group 354" transform="translate(57.013 -.001)">
            <path id="Path_269" d="M93.313 0A26.826 26.826 0 0 0 66.3 26.624c-.13 14.805 26.493 44.935 26.493 44.935s27.013-29.74 27.143-44.545A26.911 26.911 0 0 0 93.313 0z" class="cls-1" data-name="Path 269" transform="translate(-37.209 .001)"/>
            <path id="Path_270" d="M92.513 0A26.826 26.826 0 0 0 65.5 26.624c-.13 14.805 26.493 43.9 26.493 43.9s27.013-28.7 27.143-43.506A26.911 26.911 0 0 0 92.513 0z" class="cls-2" data-name="Path 270" transform="translate(-37.448 .001)"/>
            <path id="Path_271" d="M92.513 0A26.826 26.826 0 0 0 65.5 26.624c-.13 14.805 26.493 43.9 26.493 43.9s27.013-28.7 27.013-43.506A26.717 26.717 0 0 0 92.513 0z" class="cls-3" data-name="Path 271" transform="translate(-37.448 .001)"/>
            <path id="Path_272" d="M95.458 26.179a43.949 43.949 0 0 1-4.805 5.974c-.909.909-1.818 1.818-2.727 2.6l-1.429 1.3-1.429 1.169a71.445 71.445 0 0 1-12.6 8.052c-2.338 1.039-4.545 2.078-6.883 2.987l-1.688.649a10.179 10.179 0 0 1-1.818.649l-3.636 1.039c-.649.13-1.169.39-1.818.519l-1.818.39-3.636.649a8.77 8.77 0 0 1-1.818.26l-1.818.26-3.636.519 3.636-.649 1.818-.26a9.1 9.1 0 0 0 1.818-.39l3.636-.909 1.818-.39c.649-.13 1.169-.39 1.818-.519l3.506-1.169a6.524 6.524 0 0 0 1.688-.649l1.688-.649c2.338-.909 4.545-2.078 6.753-3.117a69.847 69.847 0 0 0 12.212-8.315l1.429-1.169 1.3-1.3c.909-.779 1.688-1.688 2.6-2.6a61.062 61.062 0 0 0 4.411-5.71z" class="cls-4" data-name="Path 272" transform="translate(-43.9 7.588)"/>
            <path id="Path_273" d="M83.528 30.072c-.779-.39-2.208-.779-2.987-1.169a1.014 1.014 0 0 1 .519-.519 4.9 4.9 0 0 1 2.468-.39l1.558-2.078c.13-.26.39-.26.649-.39h.13c.13 0 .26.13.39.13s.13.13.26.26c.649-.779 1.558-2.208 1.3-2.338 0 0-10.39-4.935-11.039-5.325-.519-.26-1.039-1.818-1.169-2.078A4.148 4.148 0 0 1 76 14.358s.909 1.039 1.169 1.3c.649.909 1.558.909 2.468 1.039 2.727.39 10.26 1.558 11.3 1.688a.992.992 0 0 0 .649-.26 7.622 7.622 0 0 1 1.558-1.558c1.818-2.078 4.675-5.065 4.675-5.065a1.047 1.047 0 0 1 1.169-.39l.26.26.13.13.13.13.26.26a.822.822 0 0 1-.13 1.169s-2.338 3.506-3.9 5.714c-.649 1.039-1.169 1.818-1.169 1.818a1.171 1.171 0 0 0-.13.649c.39.909 3.247 8.052 4.416 10.519.39.779.519 1.818 1.558 2.208l1.558.779c-.13.26-1.169.909-1.558.779-.26 0-1.948-.13-2.338-.649-.519-.649-7.792-9.481-7.792-9.481-.26-.13-1.3.909-1.948 1.818.13 0 .13.13.26.13.13.13.26.26.26.39v.13a1.647 1.647 0 0 1-.13.779l-1.558 2.078c0 .13.649 1.558.26 2.468a1.793 1.793 0 0 1-.39.519c-.519-.649-1.429-2.208-1.948-2.987" class="cls-5" data-name="Path 273" transform="translate(-34.437 3.305)"/>
        </g>
    </g>
</svg>
