<svg xmlns="http://www.w3.org/2000/svg" viewBox="0 0 182.87 93.119">
    <defs>
        <style>
            .cls-1{fill:#fff}.cls-2{fill:#d8d9dd}.cls-3{fill:url(#linear-gradient)}.cls-4{fill:#6cacc1}
        </style>
        <linearGradient id="linear-gradient" x1=".002" x2=".995" y1=".477" y2=".508" gradientUnits="objectBoundingBox">
            <stop offset="0" stop-color="#fff" stop-opacity="0"/>
            <stop offset=".666" stop-color="#fff"/>
            <stop offset=".684" stop-color="#f6fafb"/>
            <stop offset=".719" stop-color="#d7e8ee"/>
            <stop offset=".767" stop-color="#a1c8d7"/>
            <stop offset=".809" stop-color="#6cacc1"/>
        </linearGradient>
    </defs>
    <g id="logo" transform="translate(0 .001)">
        <g id="Group_24" data-name="Group 24" transform="translate(0 67.024)">
            <path id="Path_38" d="M10 64.3L6.418 79.767c-.526 2.42-1.157 4-1.894 4.63s-2.21.947-4.524.947l.526-2.736a2.709 2.709 0 0 0 1.894-.526 5.49 5.49 0 0 0 .947-2.315L6.944 64.3H10z" class="cls-1" data-name="Path 38" transform="translate(0 -63.669)"/>
            <path id="Path_39" d="M12.251 78.9a1.766 1.766 0 0 0 .631 1.473 2.584 2.584 0 0 0 1.578.526 25.6 25.6 0 0 0 4-.316l.737-.105-.316 2.21a16.978 16.978 0 0 1-5.156.737C10.673 83.42 9.2 81.947 9.2 78.9a12.975 12.975 0 0 1 1.789-6.839 7.3 7.3 0 0 1 2.42-2.315 7.365 7.365 0 0 1 3.472-.842c3.051 0 4.524 1.263 4.524 3.788a3.8 3.8 0 0 1-1.789 3.577 13.356 13.356 0 0 1-5.892 1.052h-1.157a3.514 3.514 0 0 0-.316 1.579zm1.894-3.9a7.645 7.645 0 0 0 3.262-.526 1.843 1.843 0 0 0 .947-1.789c0-.947-.526-1.368-1.683-1.368-1.894 0-3.262 1.263-3.893 3.683z" class="cls-1" data-name="Path 39" transform="translate(.48 -63.429)"/>
            <path id="Path_40" d="M25.357 80.015c0 .737.316 1.052 1.052 1.052l2-.21-.21 2.21a9.128 9.128 0 0 1-2.946.526 2.964 2.964 0 0 1-2.21-.737 2.694 2.694 0 0 1-.842-2 10.984 10.984 0 0 1 .421-2.946l1.368-5.892h-1.58l.631-2.63h1.579l.842-3.788h3.051l-.842 3.788h3.367l-.631 2.63h-3.262l-1.473 6.208a4.248 4.248 0 0 0-.315 1.789z" class="cls-1" data-name="Path 40" transform="translate(1.159 -63.601)"/>
            <path id="Path_41" d="M36.444 71.52a2.677 2.677 0 0 0-1.683.526 1.819 1.819 0 0 0-.631 1.263 1.026 1.026 0 0 0 .421.947 5.624 5.624 0 0 0 1.683.631c.842.21 1.368.421 1.789.526a3.161 3.161 0 0 1 1.157.631 2.513 2.513 0 0 1 1.052 2.21 4.675 4.675 0 0 1-1.683 3.893 7.363 7.363 0 0 1-4.419 1.368 12.719 12.719 0 0 1-4-.631l-.631-.21.526-2.21a26.57 26.57 0 0 0 4.209.526c2 0 2.946-.631 2.946-2a.7.7 0 0 0-.421-.737 6.235 6.235 0 0 0-2-.631 7.04 7.04 0 0 1-2.525-1.157 2.381 2.381 0 0 1-.947-2.1 4.812 4.812 0 0 1 1.683-3.893 5.776 5.776 0 0 1 4-1.368 17.045 17.045 0 0 1 4.209.526l.631.21-.526 2.21a24.481 24.481 0 0 0-4.84-.53z" class="cls-1" data-name="Path 41" transform="translate(1.539 -63.418)"/>
            <path id="Path_42" d="M52.038 64.3c3.262 0 4.84 1.368 4.84 4a5.7 5.7 0 0 1-3.367 5.261 4.129 4.129 0 0 1 1.578 1.368 3.762 3.762 0 0 1 .421 2 6.424 6.424 0 0 1-1.894 4.735c-1.263 1.263-3.051 1.789-5.471 1.789H41.2l4.419-19.045h6.418zm-2 10.732H46.25l-1.263 5.682h3.788a3.2 3.2 0 0 0 2.63-1.052 3.934 3.934 0 0 0 .947-2.736c.001-1.262-.735-1.894-2.314-1.894zm1.578-8.1h-3.472L46.882 72.4h3.472a3.047 3.047 0 0 0 2.42-1.052 3.413 3.413 0 0 0 .947-2.525 1.66 1.66 0 0 0-.526-1.368 2.178 2.178 0 0 0-1.578-.525z" class="cls-1" data-name="Path 42" transform="translate(2.15 -63.669)"/>
            <path id="Path_43" d="M63.85 68.9c3.472 0 5.156 1.683 5.156 5.05a12.763 12.763 0 0 1-.737 4.524 9.384 9.384 0 0 1-2.42 3.577 5.687 5.687 0 0 1-3.893 1.368c-3.472 0-5.156-1.683-5.156-4.945a12.8 12.8 0 0 1 .842-4.524 7.956 7.956 0 0 1 2.525-3.577A5.449 5.449 0 0 1 63.85 68.9zm-1.894 11.995a3.449 3.449 0 0 0 2.946-2.1 10.279 10.279 0 0 0 1.157-4.84 3.009 3.009 0 0 0-.526-1.789 2.071 2.071 0 0 0-1.683-.631c-1.157 0-2.1.737-2.946 2.1a10.6 10.6 0 0 0-1.157 4.84c.104 1.578.841 2.42 2.209 2.42z" class="cls-1" data-name="Path 43" transform="translate(2.964 -63.429)"/>
            <path id="Path_44" d="M76.95 68.9c3.472 0 5.156 1.683 5.156 5.05a12.763 12.763 0 0 1-.737 4.524 9.384 9.384 0 0 1-2.42 3.577 5.687 5.687 0 0 1-3.893 1.368c-3.472 0-5.156-1.683-5.156-4.945a12.8 12.8 0 0 1 .842-4.524 7.955 7.955 0 0 1 2.525-3.577A5.449 5.449 0 0 1 76.95 68.9zm-1.894 11.995A3.449 3.449 0 0 0 78 78.791a10.279 10.279 0 0 0 1.157-4.84 3.009 3.009 0 0 0-.526-1.789 2.071 2.071 0 0 0-1.683-.631c-1.157 0-2.1.737-2.946 2.1a10.6 10.6 0 0 0-1.157 4.84c.106 1.582.843 2.424 2.211 2.424z" class="cls-1" data-name="Path 44" transform="translate(3.648 -63.429)"/>
            <path id="Path_45" d="M85.351 83.376H82.3L86.824 63.7h3.051l-2.63 11.153 1.263-.105 4.209-5.261h3.367l-5.366 6.524 2.21 7.365h-3.157l-1.789-6.1-1.368.105z" class="cls-1" data-name="Path 45" transform="translate(4.295 -63.7)"/>
            <path id="Path_46" d="M94.5 83.355l3.157-13.889h3.051l-3.157 13.889zm3.683-15.993l.737-3.262h3.051l-.737 3.262z" class="cls-1" data-name="Path 46" transform="translate(4.932 -63.679)"/>
            <path id="Path_47" d="M110.285 68.9a2.861 2.861 0 0 1 2.525 1.052 3.839 3.839 0 0 1 .842 2.525 14.821 14.821 0 0 1-.631 3.788l-1.578 6.944h-3.051l1.578-6.734a23.086 23.086 0 0 0 .526-3.157 2.244 2.244 0 0 0-.316-1.263 1.108 1.108 0 0 0-1.052-.421 3.934 3.934 0 0 0-1.578.526 7.863 7.863 0 0 0-1.368 1.157l-.526.631-2.1 9.259H100.5l3.157-13.889h2.943l-.316 1.789c.105-.21.316-.316.631-.631a13.264 13.264 0 0 1 1.368-.947 4.007 4.007 0 0 1 2.002-.629z" class="cls-1" data-name="Path 47" transform="translate(5.245 -63.429)"/>
            <path id="Path_48" d="M123.222 88.055a7.086 7.086 0 0 1-4.735 1.473c-3.893 0-5.787-1.263-5.787-3.683a3.094 3.094 0 0 1 .947-2.315 9.575 9.575 0 0 1 2.525-1.683 1.742 1.742 0 0 1-.526-1.263 2.314 2.314 0 0 1 .421-1.368 4.59 4.59 0 0 1 .842-1.052l.421-.421a3.57 3.57 0 0 1-1.894-3.367 5.648 5.648 0 0 1 1.578-4 5.551 5.551 0 0 1 4.1-1.578 13.564 13.564 0 0 1 2.63.316l.421.105 4.1-.21-.631 2.525h-2a3.855 3.855 0 0 1 .21 1.683 5.1 5.1 0 0 1-1.578 3.683 5.8 5.8 0 0 1-4.209 1.578l-1.052-.105a2.316 2.316 0 0 0-.631 1.263.667.667 0 0 0 .526.631c.316.105 1.052.21 2.315.421a5.737 5.737 0 0 1 2.841 1.052 2.663 2.663 0 0 1 1.052 2.42 5.158 5.158 0 0 1-1.886 3.895zm-7.155-4.209a2.037 2.037 0 0 0-.631 1.368 1.5 1.5 0 0 0 .631 1.263 3.763 3.763 0 0 0 2.21.526 5.825 5.825 0 0 0 2.736-.631 2.1 2.1 0 0 0 1.157-1.894 1.105 1.105 0 0 0-.526-.947 8.283 8.283 0 0 0-2.1-.526c-1.052-.21-1.789-.316-2.1-.421-.43.416-.956.841-1.377 1.262zm4.209-7.681a2.7 2.7 0 0 0 2.841-2.841q0-1.894-2.21-1.894a2.694 2.694 0 0 0-2 .842 2.952 2.952 0 0 0-.737 2c.001 1.262.738 1.893 2.106 1.893z" class="cls-1" data-name="Path 48" transform="translate(5.881 -63.434)"/>
            <path id="Path_49" d="M125.6 82.588l.842-3.788h3.051l-.842 3.788z" class="cls-1" data-name="Path 49" transform="translate(6.555 -62.912)"/>
            <path id="Path_50" d="M138.355 68.9a12.38 12.38 0 0 1 3.262.526l.631.21-.737 2.21a22.377 22.377 0 0 0-3.157-.316 3.251 3.251 0 0 0-3.051 2 9.676 9.676 0 0 0-1.052 4.63c0 1.789.842 2.63 2.42 2.63a20.432 20.432 0 0 0 2.525-.21l.526-.105-.21 2.315a13.214 13.214 0 0 1-4 .631 4.294 4.294 0 0 1-3.157-1.157A4.83 4.83 0 0 1 131.2 78.9a12.713 12.713 0 0 1 1.894-7.155 5.791 5.791 0 0 1 5.261-2.845z" class="cls-1" data-name="Path 50" transform="translate(6.847 -63.429)"/>
            <path id="Path_51" d="M148.65 68.9c3.472 0 5.156 1.683 5.156 5.05a12.764 12.764 0 0 1-.736 4.524 9.384 9.384 0 0 1-2.42 3.577 5.687 5.687 0 0 1-3.893 1.368c-3.472 0-5.156-1.683-5.156-4.945a12.8 12.8 0 0 1 .842-4.524 7.956 7.956 0 0 1 2.525-3.577 5.652 5.652 0 0 1 3.682-1.473zm-1.789 11.995a3.449 3.449 0 0 0 2.946-2.1 10.279 10.279 0 0 0 1.157-4.84 3.009 3.009 0 0 0-.526-1.789 2.071 2.071 0 0 0-1.684-.631c-1.157 0-2.1.737-2.946 2.1a10.6 10.6 0 0 0-1.157 4.84c0 1.578.737 2.42 2.21 2.42z" class="cls-1" data-name="Path 51" transform="translate(7.389 -63.429)"/>
            <path id="Path_52" d="M164.091 73.324c0-1.157-.526-1.789-1.473-1.789a2.8 2.8 0 0 0-1.368.526 7.863 7.863 0 0 0-1.368 1.157l-.526.631-2.1 9.259H154.2l3.157-13.889h2.943l-.316 1.789.21-.21.526-.526.947-.631a4.008 4.008 0 0 1 2.315-.737 3.633 3.633 0 0 1 1.894.526 2.149 2.149 0 0 1 .947 1.052l.21.526.631-.631q.473-.316 1.578-.947a4.42 4.42 0 0 1 2.21-.631 2.861 2.861 0 0 1 2.525 1.052 3.752 3.752 0 0 1 .842 2.42 23.542 23.542 0 0 1-.526 3.893l-1.578 6.944h-3.051l1.578-6.734a22.5 22.5 0 0 0 .526-3.051c0-1.263-.421-1.894-1.368-1.894a2.8 2.8 0 0 0-1.368.526 4.21 4.21 0 0 0-1.263 1.052l-.526.526a18.754 18.754 0 0 1-.421 2.736l-1.578 6.944H162.2l1.578-6.734c.102-1.579.313-2.629.313-3.155z" class="cls-1" data-name="Path 52" transform="translate(8.047 -63.434)"/>
        </g>
        <g id="Group_25" data-name="Group 25" transform="translate(46.086 -.001)">
            <path id="Path_53" d="M88.291 0A21.758 21.758 0 0 0 66.3 21.57c-.105 11.995 21.57 36.511 21.57 36.511s21.991-24.2 21.991-36.2A21.734 21.734 0 0 0 88.291 0z" class="cls-2" data-name="Path 53" transform="translate(-42.626 .001)"/>
            <path id="Path_54" d="M87.491 0A21.758 21.758 0 0 0 65.5 21.57c-.105 12.1 21.57 35.669 21.57 35.669s21.99-23.359 21.99-35.354A21.734 21.734 0 0 0 87.491 0z" class="cls-1" data-name="Path 54" transform="translate(-42.668 .001)"/>
            <path id="Path_55" d="M85.782 26.021a35.6 35.6 0 0 1-3.893 4.84c-.737.737-1.473 1.473-2.21 2.1l-1.157 1.052-1.157.947a55.084 55.084 0 0 1-10.311 6.524c-1.894.842-3.683 1.683-5.577 2.42l-1.477.53a8.248 8.248 0 0 1-1.473.526l-2.946.842c-.526.105-.947.316-1.473.421l-1.473.316-2.946.631a7.1 7.1 0 0 1-1.473.21l-1.473.21-2.946.526 2.946-.526 1.473-.21a7.371 7.371 0 0 0 1.473-.316l2.946-.737 1.473-.316c.526-.105.947-.316 1.473-.421l2.841-.947a5.286 5.286 0 0 0 1.368-.526l1.368-.526c1.894-.737 3.683-1.683 5.471-2.525a56.589 56.589 0 0 0 9.891-6.734l1.157-.947 1.052-1.052c.737-.631 1.368-1.368 2.1-2.1a49.468 49.468 0 0 0 3.577-4.63z" class="cls-3" data-name="Path 55" transform="translate(-43.8 1.337)"/>
            <path id="Path_56" d="M82.125 26.564c-.737-.316-1.789-.631-2.42-.947a.821.821 0 0 1 .421-.421 3.968 3.968 0 0 1 2-.316l1.261-1.68a.579.579 0 0 1 .526-.316h.105c.105 0 .21.105.316.105s.105.105.21.21c.526-.631 1.263-1.789 1.052-1.894 0 0-8.417-4-9.049-4.314-.421-.21-.842-1.473-.947-1.683a3.361 3.361 0 0 1 .316-1.473s.737.842.947 1.052c.526.737 1.263.737 2 .842 2.21.316 8.312 1.263 9.154 1.368a.8.8 0 0 0 .526-.21 6.175 6.175 0 0 1 1.263-1.263c1.473-1.683 3.788-4.1 3.788-4.1a.849.849 0 0 1 .947-.316l.21.21.105.105.105.105.21.21a.666.666 0 0 1-.105.947l-3.156 4.73c-.526.842-.947 1.473-.947 1.473a.949.949 0 0 0-.105.526c.316.737 2.736 6.524 3.577 8.523.316.631.421 1.473 1.263 1.789l1.263.631a2.525 2.525 0 0 1-1.263.737c-.21 0-1.578-.105-1.894-.526-.421-.526-6.313-7.681-6.313-7.681-.21-.105-1.157.737-1.578 1.473.105 0 .105.105.21.105.105.105.21.21.21.316v.105a1.334 1.334 0 0 1-.105.631L84.965 27.3c0 .105.526 1.263.21 2a1.452 1.452 0 0 1-.316.421c-.421-.526-1.157-1.789-1.578-2.42" class="cls-4" data-name="Path 56" transform="translate(-42.142 .583)"/>
        </g>
    </g>
</svg>
