<svg xmlns="http://www.w3.org/2000/svg" viewBox="0 0 71.751 61.982">
    <defs>
        <style>
            .cls-1{fill:#d8d9dd}.cls-2{fill:#fff}.cls-3{fill:url(#linear-gradient)}.cls-4{fill:#6cacc1}
        </style>
        <linearGradient id="linear-gradient" x1=".002" x2=".995" y1=".477" y2=".508" gradientUnits="objectBoundingBox">
            <stop offset="0" stop-color="#fff" stop-opacity="0"/>
            <stop offset=".666" stop-color="#fff"/>
            <stop offset=".684" stop-color="#f6fafb"/>
            <stop offset=".719" stop-color="#d7e8ee"/>
            <stop offset=".767" stop-color="#a1c8d7"/>
            <stop offset=".809" stop-color="#6cacc1"/>
        </linearGradient>
    </defs>
    <g id="logo" transform="translate(-335.181 .001)">
        <g id="Group_358" data-name="Group 358" transform="translate(335.181 -.001)">
            <path id="Path_289" d="M89.768 0A23.22 23.22 0 0 0 66.3 23.019c-.112 12.8 23.019 38.963 23.019 38.963s23.468-25.826 23.468-38.626A23.194 23.194 0 0 0 89.768 0z" class="cls-1" data-name="Path 289" transform="translate(-41.036 .001)"/>
            <path id="Path_290" d="M88.968 0A23.22 23.22 0 0 0 65.5 23.019c-.112 12.913 23.019 38.065 23.019 38.065s23.468-24.927 23.468-37.728A23.194 23.194 0 0 0 88.968 0z" class="cls-2" data-name="Path 290" transform="translate(-41.134 .001)"/>
            <path id="Path_291" d="M88.6 26.049a38 38 0 0 1-4.155 5.165c-.786.786-1.572 1.572-2.358 2.246l-1.235 1.123-1.235 1.011a58.785 58.785 0 0 1-11 6.962c-2.021.9-3.93 1.8-5.951 2.583l-1.572.561a8.8 8.8 0 0 1-1.572.561l-3.144.9c-.561.112-1.011.337-1.572.449l-1.572.337-3.144.674a7.582 7.582 0 0 1-1.572.225l-1.572.225-3.144.561 3.144-.561 1.572-.225a7.866 7.866 0 0 0 1.572-.337l3.144-.786 1.572-.337c.561-.112 1.011-.337 1.572-.449l3.032-1.011a5.64 5.64 0 0 0 1.46-.561l1.46-.561c2.021-.786 3.93-1.8 5.839-2.695a60.39 60.39 0 0 0 10.552-7.189l1.235-1.011 1.123-1.123c.786-.674 1.46-1.46 2.246-2.246a52.792 52.792 0 0 0 3.817-4.94z" class="cls-3" data-name="Path 291" transform="translate(-43.8 3.146)"/>
            <path id="Path_292" d="M82.564 27.6c-.786-.337-1.909-.674-2.583-1.011a.877.877 0 0 1 .449-.449 4.235 4.235 0 0 1 2.133-.337l1.347-1.8a.618.618 0 0 1 .561-.337h.112c.112 0 .225.112.337.112s.112.112.225.225c.561-.674 1.347-1.909 1.123-2.021 0 0-8.983-4.267-9.657-4.6-.449-.225-.9-1.572-1.011-1.8a3.586 3.586 0 0 1 .337-1.572s.786.9 1.011 1.123c.561.786 1.347.786 2.133.9 2.358.337 8.871 1.347 9.769 1.46a.858.858 0 0 0 .561-.225 6.59 6.59 0 0 1 1.347-1.347c1.572-1.8 4.042-4.379 4.042-4.379a.906.906 0 0 1 1.011-.337l.225.225.112.112.112.112.225.225a.711.711 0 0 1-.112 1.011l-3.369 5.053c-.561.9-1.011 1.572-1.011 1.572a1.012 1.012 0 0 0-.112.561c.337.786 2.919 6.962 3.818 9.1.337.674.449 1.572 1.347 1.909l1.347.674a2.7 2.7 0 0 1-1.347.786c-.225 0-1.684-.112-2.021-.561-.449-.561-6.737-8.2-6.737-8.2-.225-.112-1.235.786-1.684 1.572.112 0 .112.112.225.112.112.112.225.225.225.337v.112a1.424 1.424 0 0 1-.112.674l-1.347 1.8c0 .112.561 1.347.225 2.133a1.55 1.55 0 0 1-.337.449c-.449-.561-1.235-1.909-1.684-2.583" class="cls-4" data-name="Path 292" transform="translate(-39.896 1.372)"/>
        </g>
    </g>
</svg>
