<svg xmlns="http://www.w3.org/2000/svg" viewBox="0 0 35.122 34.842">
    <defs>
        <style>
            .cls-1{fill:#6cacc1}
        </style>
    </defs>
    <path id="plane_icon" d="M83.457 29.7c-.886-.38-2.153-.76-2.913-1.14a.989.989 0 0 1 .507-.507 4.776 4.776 0 0 1 2.406-.38l1.52-2.026a.7.7 0 0 1 .633-.38h.127c.127 0 .253.127.38.127s.127.127.253.253c.633-.76 1.52-2.153 1.266-2.28 0 0-10.131-4.812-10.891-5.192-.507-.253-1.013-1.773-1.14-2.026a4.045 4.045 0 0 1 .38-1.773s.886 1.013 1.14 1.266c.633.886 1.52.886 2.406 1.013 2.66.38 10 1.52 11.018 1.646a.967.967 0 0 0 .633-.253 7.433 7.433 0 0 1 1.52-1.52c1.773-2.026 4.559-4.939 4.559-4.939a1.021 1.021 0 0 1 1.14-.38l.253.253.127.127.127.127.253.253a.8.8 0 0 1-.127 1.14l-3.8 5.7a78.686 78.686 0 0 1-1.14 1.773 1.142 1.142 0 0 0-.127.633c.38.887 3.293 7.852 4.306 10.258.38.76.507 1.773 1.52 2.153l1.52.76a3.039 3.039 0 0 1-1.52.887c-.253 0-1.9-.127-2.28-.633-.507-.633-7.6-9.245-7.6-9.245-.253-.127-1.393.887-1.9 1.773.127 0 .127.127.253.127.127.127.253.253.253.38v.125a1.606 1.606 0 0 1-.127.76l-1.52 2.026c0 .127.633 1.52.253 2.406a1.748 1.748 0 0 1-.38.507c-.507-.633-1.393-2.153-1.9-2.913" class="cls-1" transform="rotate(-38 44.584 123.185)"/>
</svg>
